<svg width="54" height="54" viewBox="0 0 54 54" fill="none" xmlns="http://www.w3.org/2000/svg">
<g id="Group 34">
<g id="Group 2">
<circle id="Ellipse 2" cx="27" cy="27" r="27" fill="#ECECEC"/>
<g id="Clip path group">
<mask id="mask0_1_1882" style="mask-type:luminance" maskUnits="userSpaceOnUse" x="1" y="2" width="52" height="52">
<g id="clippath">
<path id="Vector" d="M27 54C41.1887 54 52.6909 42.4978 52.6909 28.3091C52.6909 14.1204 41.1887 2.61816 27 2.61816C12.8113 2.61816 1.30908 14.1204 1.30908 28.3091C1.30908 42.4978 12.8113 54 27 54Z" fill="white"/>
</g>
</mask>
<g mask="url(#mask0_1_1882)">
<g id="Group">
<g id="Group_2">
<path id="Vector_2" d="M39.8069 26.5074C39.8069 33.7394 27.37 72.7455 27.37 72.7455C27.37 72.7455 14.9331 33.7401 14.9331 26.5074C14.9331 19.2747 20.501 13.4121 27.37 13.4121C34.239 13.4121 39.8069 19.2747 39.8069 26.5074Z" fill="#B2B2B2"/>
<path id="Vector_3" d="M15.0129 24.707L9.64453 80.3982H44.3249L39.7681 24.707H15.0129Z" fill="#B2B2B2"/>
<path id="Vector_4" d="M15.4938 29.803C16.904 29.803 18.0472 28.6599 18.0472 27.2497C18.0472 25.8395 16.904 24.6963 15.4938 24.6963C14.0836 24.6963 12.9404 25.8395 12.9404 27.2497C12.9404 28.6599 14.0836 29.803 15.4938 29.803Z" fill="#F1F1F1"/>
<path id="Vector_5" d="M38.8263 29.803C40.2365 29.803 41.3797 28.6599 41.3797 27.2497C41.3797 25.8395 40.2365 24.6963 38.8263 24.6963C37.4161 24.6963 36.2729 25.8395 36.2729 27.2497C36.2729 28.6599 37.4161 29.803 38.8263 29.803Z" fill="#F1F1F1"/>
<path id="Vector_6" d="M27.3581 36.562C33.4115 36.562 38.3188 31.6547 38.3188 25.6013C38.3188 19.5479 33.4115 14.6406 27.3581 14.6406C21.3047 14.6406 16.3975 19.5479 16.3975 25.6013C16.3975 31.6547 21.3047 36.562 27.3581 36.562Z" fill="#F1F1F1"/>
<path id="Vector_7" d="M35.7944 33.5646C35.7944 38.4631 27.3706 64.8815 27.3706 64.8815C27.3706 64.8815 18.9468 38.4631 18.9468 33.5646C18.9468 28.666 22.7179 24.6953 27.3706 24.6953C32.0232 24.6953 35.7944 28.666 35.7944 33.5646Z" fill="#E5E5E5"/>
<path id="Vector_8" d="M20.6128 33.5732C20.6128 29.5381 23.6132 26.2666 27.3152 26.2666C31.0172 26.2666 34.0176 29.5381 34.0176 33.5732" fill="#CBCBCB"/>
<path id="Vector_9" d="M27.3544 13.9314C29.0249 13.9314 30.3791 12.5771 30.3791 10.9066C30.3791 9.23607 29.0249 7.88184 27.3544 7.88184C25.6838 7.88184 24.3296 9.23607 24.3296 10.9066C24.3296 12.5771 25.6838 13.9314 27.3544 13.9314Z" fill="#B2B2B2"/>
<path id="Vector_10" d="M21.8154 25.8741C22.2493 25.8741 22.6011 25.3641 22.6011 24.7349C22.6011 24.1057 22.2493 23.5957 21.8154 23.5957C21.3815 23.5957 21.0298 24.1057 21.0298 24.7349C21.0298 25.3641 21.3815 25.8741 21.8154 25.8741Z" fill="black"/>
<path id="Vector_11" d="M32.5791 25.8741C33.013 25.8741 33.3648 25.3641 33.3648 24.7349C33.3648 24.1057 33.013 23.5957 32.5791 23.5957C32.1452 23.5957 31.7935 24.1057 31.7935 24.7349C31.7935 25.3641 32.1452 25.8741 32.5791 25.8741Z" fill="black"/>
<path id="Vector_12" d="M26.964 28.1536C28.3742 28.1536 29.5174 27.0104 29.5174 25.6003C29.5174 24.1901 28.3742 23.0469 26.964 23.0469C25.5538 23.0469 24.4106 24.1901 24.4106 25.6003C24.4106 27.0104 25.5538 28.1536 26.964 28.1536Z" fill="#F1F1F1"/>
<path id="Vector_13" d="M22.1297 14.6387H32.6072C32.6072 14.6387 36.3807 15.8557 38.5813 20.8453H16.1587C16.1587 20.8453 17.6514 16.8385 22.1297 14.6387Z" fill="#E5E5E5"/>
</g>
</g>
</g>
</g>
</g>
</g>
</svg>
