<svg width="332" height="241" viewBox="0 0 332 241" fill="none" xmlns="http://www.w3.org/2000/svg">
<g clip-path="url(#clip0_36_106)">
<path d="M182.246 104.644C182.246 104.644 190.163 92.5349 212.072 92.9043C233.981 93.2736 244.967 110.169 244.967 110.169C244.967 110.169 258.544 102.058 269.518 112.269C280.492 122.48 267.713 130.506 267.713 130.506C267.713 130.506 291.546 133.347 291.992 156.697C292.437 180.048 263.496 181.753 263.496 181.753L182.246 104.644Z" fill="url(#paint0_radial_36_106)"/>
<path d="M65.5719 190.06C65.5719 190.06 42 191.341 42 166.99C42 142.64 65.5719 144.58 65.5719 144.58C65.5719 144.58 56.5586 133.031 63.4917 120.215C70.4248 107.399 88.4514 113.167 88.4514 113.167C88.4514 113.167 91.2241 102.274 104.398 102.274C117.572 102.274 122.424 109.323 122.424 109.323L151.022 118.425L141.839 181.733L65.5748 190.063L65.5719 190.06Z" fill="url(#paint1_radial_36_106)"/>
<path d="M183.335 152.072C183.335 152.072 179.073 163.769 165.93 161.55C152.788 159.331 152.935 150.018 152.935 150.018C152.935 150.018 149.896 167.789 135.726 171.494C121.556 175.196 111.308 164.516 111.308 164.516C111.308 164.516 87.674 175.571 84.7651 149.407C81.8562 123.244 100.939 120.539 100.939 120.539C100.939 120.539 101.259 102.584 120.923 92.5946C140.587 82.6055 154.255 92.1827 154.255 92.1827C154.255 92.1827 172.162 69.423 195.212 79.6366C218.262 89.8502 225.351 112.3 225.351 112.3C225.351 112.3 242.807 102.16 248.531 127.849C254.256 153.535 228.098 154.433 228.098 154.433C228.098 154.433 225.78 169.59 206.354 169.61C186.928 169.63 183.333 152.075 183.333 152.075L183.335 152.072Z" fill="url(#paint2_radial_36_106)"/>
<path d="M145.446 165.792C145.446 165.792 150.71 154.172 167.798 156.686C184.885 159.2 184.902 168.525 184.902 168.525C184.902 168.525 188.449 150.791 206.737 147.399C225.025 144.004 238.548 154.93 238.548 154.93C238.548 154.93 268.942 144.384 273.295 170.656C277.649 196.927 252.967 199.211 252.967 199.211C252.967 199.211 252.95 217.189 227.678 226.758C202.406 236.327 184.476 226.428 184.476 226.428C184.476 226.428 161.767 248.827 131.656 238.085C101.549 227.343 91.8571 204.697 91.8571 204.697C91.8571 204.697 69.4516 214.465 61.4628 188.608C53.474 162.752 87.3618 162.436 87.3618 162.436C87.3618 162.436 90.0295 147.305 115.213 147.72C140.397 148.132 145.449 165.795 145.449 165.795L145.446 165.792Z" fill="url(#paint3_radial_36_106)"/>
<path d="M155.143 140.676C155.143 140.676 157.581 132.409 167.173 133.256C176.766 134.102 177.166 140.514 177.166 140.514C177.166 140.514 178.395 128.133 188.407 124.852C198.419 121.57 206.382 128.386 206.382 128.386C206.382 128.386 222.817 119.559 226.333 137.404C229.849 155.248 216.239 158.098 216.239 158.098C216.239 158.098 216.979 170.465 203.349 178.355C189.715 186.244 179.348 180.363 179.348 180.363C179.348 180.363 167.673 196.946 150.509 191.117C133.342 185.287 127.016 170.212 127.016 170.212C127.016 170.212 114.984 178.09 109.467 160.717C103.95 143.344 122.754 141.372 122.754 141.372C122.754 141.372 123.602 130.826 137.602 129.807C151.602 128.787 155.143 140.674 155.143 140.674V140.676Z" fill="url(#paint4_radial_36_106)"/>
</g>
<path d="M298.534 222.672C298.534 222.672 297.36 226.298 292.743 225.925C288.128 225.553 287.937 222.74 287.937 222.74C287.937 222.74 287.345 228.172 282.526 229.61C277.708 231.048 273.876 228.057 273.876 228.057C273.876 228.057 265.966 231.927 264.278 224.099C262.59 216.271 269.138 215.022 269.138 215.022C269.138 215.022 268.783 209.597 275.343 206.138C281.903 202.679 286.891 205.259 286.891 205.259C286.891 205.259 292.51 197.986 300.77 200.546C309.028 203.106 312.071 209.719 312.071 209.719C312.071 209.719 317.861 206.265 320.513 213.885C323.165 221.506 314.118 222.368 314.118 222.368C314.118 222.368 313.708 226.994 306.971 227.439C300.234 227.885 298.532 222.669 298.532 222.669L298.534 222.672Z" fill="url(#paint5_radial_36_106)"/>
<path d="M52.5336 231.672C52.5336 231.672 51.3596 235.298 46.7434 234.925C42.1284 234.553 41.9371 231.74 41.9371 231.74C41.9371 231.74 41.3445 237.172 36.5258 238.61C31.7083 240.048 27.8759 237.057 27.8759 237.057C27.8759 237.057 19.9664 240.927 18.2782 233.099C16.5899 225.271 23.1379 224.022 23.1379 224.022C23.1379 224.022 22.7826 218.597 29.343 215.138C35.9034 211.679 40.8911 214.259 40.8911 214.259C40.8911 214.259 46.5098 206.986 54.7696 209.546C63.0282 212.106 66.0705 218.719 66.0705 218.719C66.0705 218.719 71.8607 215.265 74.5129 222.885C77.1652 230.506 68.1178 231.368 68.1178 231.368C68.1178 231.368 67.7078 235.994 60.971 236.439C54.2342 236.885 52.5323 231.669 52.5323 231.669L52.5336 231.672Z" fill="url(#paint6_radial_36_106)"/>
<path d="M27.8693 218.137C27.8693 218.137 26.9219 221.038 23.1965 220.74C19.4721 220.442 19.3177 218.192 19.3177 218.192C19.3177 218.192 18.8395 222.537 14.9507 223.687C11.0628 224.838 7.97004 222.445 7.97004 222.445C7.97004 222.445 1.58693 225.541 0.224487 219.279C-1.13795 213.016 4.14639 212.017 4.14639 212.017C4.14639 212.017 3.85966 207.677 9.15403 204.91C14.4484 202.143 18.4736 204.207 18.4736 204.207C18.4736 204.207 23.008 198.389 29.6738 200.437C36.3387 202.485 38.7939 207.775 38.7939 207.775C38.7939 207.775 43.4667 205.012 45.6071 211.108C47.7475 217.205 40.446 217.894 40.446 217.894C40.446 217.894 40.1152 221.594 34.6785 221.951C29.2417 222.308 27.8683 218.135 27.8683 218.135L27.8693 218.137Z" fill="url(#paint7_radial_36_106)"/>
<path d="M225.268 79.5736C225.268 79.5736 228.642 54.5419 245.509 64.2889" stroke="#B0B0B0" stroke-width="3" stroke-miterlimit="10"/>
<path d="M195.219 61.7335C195.219 61.7335 194.118 17.368 226.978 4.12012" stroke="#B0B0B0" stroke-width="3" stroke-miterlimit="10"/>
<path d="M51.0001 69.2669C51.0001 69.2669 91.0741 60.1704 94.2891 92.0907" stroke="#B0B0B0" stroke-width="3" stroke-miterlimit="10"/>
<path d="M1.38676 103.902C1.38676 103.902 25.6689 86.9693 42.4285 103.372" stroke="#B0B0B0" stroke-width="3" stroke-miterlimit="10"/>
<path d="M82.7789 51.1743C82.7789 51.1743 103.515 55.7388 102.569 72.5104" stroke="#B0B0B0" stroke-width="3" stroke-miterlimit="10"/>
<path d="M282 119.627C282 119.627 308.67 88.3641 330.342 112.019" stroke="#B0B0B0" stroke-width="3" stroke-miterlimit="10"/>
<defs>
<radialGradient id="paint0_radial_36_106" cx="0" cy="0" r="1" gradientUnits="userSpaceOnUse" gradientTransform="translate(237.021 137.477) rotate(32.3584) scale(53.0464 39.8035)">
<stop stop-color="white"/>
<stop offset="0.56" stop-color="#FDFFFF"/>
<stop offset="0.76" stop-color="#F6FFFF"/>
<stop offset="0.91" stop-color="#EAFFFF"/>
<stop offset="1" stop-color="#DEFFFF"/>
</radialGradient>
<radialGradient id="paint1_radial_36_106" cx="0" cy="0" r="1" gradientUnits="userSpaceOnUse" gradientTransform="translate(113.454 153.609) scale(54.6446 54.7046)">
<stop stop-color="white"/>
<stop offset="0.56" stop-color="#FDFFFF"/>
<stop offset="0.76" stop-color="#F6FFFF"/>
<stop offset="0.91" stop-color="#EAFFFF"/>
<stop offset="1" stop-color="#DEFFFF"/>
</radialGradient>
<radialGradient id="paint2_radial_36_106" cx="0" cy="0" r="1" gradientUnits="userSpaceOnUse" gradientTransform="translate(167.355 124.393) rotate(178.729) scale(63.5395 46.2612)">
<stop stop-color="white"/>
<stop offset="0.56" stop-color="#FDFFFF"/>
<stop offset="0.76" stop-color="#F6FFFF"/>
<stop offset="0.91" stop-color="#EAFFFF"/>
<stop offset="1" stop-color="#DEFFFF"/>
</radialGradient>
<radialGradient id="paint3_radial_36_106" cx="0" cy="0" r="1" gradientUnits="userSpaceOnUse" gradientTransform="translate(167.029 193.568) scale(82.5188 46.2613)">
<stop stop-color="white"/>
<stop offset="0.56" stop-color="#FDFFFF"/>
<stop offset="0.76" stop-color="#F6FFFF"/>
<stop offset="0.91" stop-color="#EAFFFF"/>
<stop offset="1" stop-color="#DEFFFF"/>
</radialGradient>
<radialGradient id="paint4_radial_36_106" cx="0" cy="0" r="1" gradientUnits="userSpaceOnUse" gradientTransform="translate(168.282 158.842) rotate(-5.32581) scale(46.211 32.2174)">
<stop stop-color="white"/>
<stop offset="0.56" stop-color="#FDFFFF"/>
<stop offset="0.76" stop-color="#F6FFFF"/>
<stop offset="0.91" stop-color="#EAFFFF"/>
<stop offset="1" stop-color="#DEFFFF"/>
</radialGradient>
<radialGradient id="paint5_radial_36_106" cx="0" cy="0" r="1" gradientUnits="userSpaceOnUse" gradientTransform="translate(292.65 214.698) rotate(175.159) scale(22.0343 14.1195)">
<stop stop-color="white"/>
<stop offset="0.56" stop-color="#FDFFFF"/>
<stop offset="0.76" stop-color="#F6FFFF"/>
<stop offset="0.91" stop-color="#EAFFFF"/>
<stop offset="1" stop-color="#DEFFFF"/>
</radialGradient>
<radialGradient id="paint6_radial_36_106" cx="0" cy="0" r="1" gradientUnits="userSpaceOnUse" gradientTransform="translate(46.6497 223.698) rotate(175.159) scale(22.0343 14.1195)">
<stop stop-color="white"/>
<stop offset="0.56" stop-color="#FDFFFF"/>
<stop offset="0.76" stop-color="#F6FFFF"/>
<stop offset="0.91" stop-color="#EAFFFF"/>
<stop offset="1" stop-color="#DEFFFF"/>
</radialGradient>
<radialGradient id="paint7_radial_36_106" cx="0" cy="0" r="1" gradientUnits="userSpaceOnUse" gradientTransform="translate(23.1208 211.758) rotate(175.201) scale(17.7811 11.296)">
<stop stop-color="white"/>
<stop offset="0.56" stop-color="#FDFFFF"/>
<stop offset="0.76" stop-color="#F6FFFF"/>
<stop offset="0.91" stop-color="#EAFFFF"/>
<stop offset="1" stop-color="#DEFFFF"/>
</radialGradient>
<clipPath id="clip0_36_106">
<rect width="250" height="164" fill="white" transform="translate(42 77)"/>
</clipPath>
</defs>
</svg>
