<svg width="702" height="959" viewBox="0 0 702 959" fill="none" xmlns="http://www.w3.org/2000/svg">
<g clip-path="url(#clip0_1_2111)">
<path d="M393.317 576.27C393.317 576.27 415.522 542.348 476.966 543.383C538.409 544.418 569.218 591.75 569.218 591.75C569.218 591.75 607.294 569.027 638.071 597.631C668.848 626.236 633.009 648.72 633.009 648.72C633.009 648.72 699.849 656.679 701.098 722.094C702.348 787.509 621.182 792.284 621.182 792.284L393.317 576.27Z" fill="url(#paint0_radial_1_2111)"/>
<path d="M66.1072 815.564C66.1072 815.564 0 819.154 0 750.937C0 682.721 66.1072 688.157 66.1072 688.157C66.1072 688.157 40.8295 655.804 60.2733 619.901C79.7171 583.998 130.272 600.154 130.272 600.154C130.272 600.154 138.048 569.64 174.994 569.64C211.94 569.64 225.549 589.386 225.549 589.386L305.752 614.886L279.997 792.236L66.1152 815.572L66.1072 815.564Z" fill="url(#paint1_radial_1_2111)"/>
<path d="M479.13 188.691C479.13 261.954 353.14 657.101 353.14 657.101C353.14 657.101 227.149 261.962 227.149 188.691C227.149 115.421 283.554 56.0312 353.14 56.0312C422.725 56.0312 479.13 115.421 479.13 188.691Z" fill="url(#paint2_linear_1_2111)"/>
<path d="M227.953 170.449L173.569 734.621H524.894L478.732 170.449H227.953Z" fill="url(#paint3_linear_1_2111)"/>
<path d="M583.433 383.654C603.213 383.654 619.248 367.619 619.248 347.839C619.248 328.059 603.213 312.024 583.433 312.024C563.652 312.024 547.617 328.059 547.617 347.839C547.617 367.619 563.652 383.654 583.433 383.654Z" fill="url(#paint4_linear_1_2111)"/>
<path d="M299.464 227.237L221.14 311.474C221.14 311.474 191.811 350.999 178.416 382.548C165.762 412.354 157.054 487.845 157.054 487.845C157.054 487.845 147.559 577.344 185.54 603.672C223.52 629.993 251.997 593.143 251.997 593.143L282.854 456.256L214.025 753.723H496.473L437.131 456.256L469.42 490.48C469.42 490.48 490.305 511.539 515.933 490.48C536.737 473.384 579.764 425.057 595.22 407.476C598.658 403.568 599.359 397.957 596.987 393.325L557.248 315.669C554.374 310.05 546.782 309.047 542.516 313.703C527.959 329.613 498.574 355.623 484.598 324.639C466.818 285.202 424.611 244.715 405.661 227.237H299.464Z" fill="url(#paint5_linear_1_2111)"/>
<path d="M232.832 222.071C247.118 222.071 258.699 210.49 258.699 196.205C258.699 181.919 247.118 170.338 232.832 170.338C218.546 170.338 206.965 181.919 206.965 196.205C206.965 210.49 218.546 222.071 232.832 222.071Z" fill="url(#paint6_linear_1_2111)"/>
<path d="M469.197 222.071C483.483 222.071 495.064 210.49 495.064 196.205C495.064 181.919 483.483 170.338 469.197 170.338C454.912 170.338 443.331 181.919 443.331 196.205C443.331 210.49 454.912 222.071 469.197 222.071Z" fill="url(#paint7_linear_1_2111)"/>
<path d="M353.02 290.534C414.344 290.534 464.056 240.822 464.056 179.499C464.056 118.175 414.344 68.4631 353.02 68.4631C291.697 68.4631 241.985 118.175 241.985 179.499C241.985 240.822 291.697 290.534 353.02 290.534Z" fill="url(#paint8_linear_1_2111)"/>
<path d="M438.484 260.179C438.484 309.803 353.148 577.432 353.148 577.432C353.148 577.432 267.812 309.803 267.812 260.179C267.812 210.555 306.015 170.33 353.148 170.33C400.281 170.33 438.484 210.555 438.484 260.179Z" fill="url(#paint9_linear_1_2111)"/>
<path d="M284.685 260.266C284.685 219.389 315.08 186.248 352.583 186.248C390.085 186.248 420.481 219.389 420.481 260.266" fill="url(#paint10_linear_1_2111)"/>
<path d="M352.981 61.292C369.904 61.292 383.623 47.5731 383.623 30.65C383.623 13.7268 369.904 0.00793457 352.981 0.00793457C336.057 0.00793457 322.339 13.7268 322.339 30.65C322.339 47.5731 336.057 61.292 352.981 61.292Z" fill="url(#paint11_linear_1_2111)"/>
<path d="M296.87 182.269C301.265 182.269 304.829 177.102 304.829 170.728C304.829 164.354 301.265 159.188 296.87 159.188C292.474 159.188 288.911 164.354 288.911 170.728C288.911 177.102 292.474 182.269 296.87 182.269Z" fill="black"/>
<path d="M405.908 182.269C410.303 182.269 413.867 177.102 413.867 170.728C413.867 164.354 410.303 159.188 405.908 159.188C401.512 159.188 397.949 164.354 397.949 170.728C397.949 177.102 401.512 182.269 405.908 182.269Z" fill="black"/>
<path d="M80.7438 236.748C80.7438 236.748 61.8253 238.642 56.1426 259.455C52.4496 272.985 58.3791 283.674 63.1386 289.126C66.3381 292.787 70.6996 295.35 75.5386 295.787C78.5073 296.05 81.8581 295.612 84.779 293.392C89.9364 289.476 93.3349 293.033 94.8949 295.469C95.651 296.655 96.1046 298.008 96.216 299.409C96.614 304.502 95.3565 320.006 69.3863 320.006C55.1955 320.006 46.6794 310.543 42.2224 300.61C36.7864 288.489 35.6562 274.911 38.0041 261.842C41.2434 243.775 50.7862 217.702 78.8416 214.049C122.361 208.374 139.393 246.219 139.393 246.219C139.393 246.219 171.564 302.075 139.393 329.024C112.237 351.771 140.372 352.622 149.796 352.328C151.141 352.288 152.462 352.057 153.783 351.787C156.577 351.214 164.066 352.025 171.556 372.997C180.151 397.065 290.256 700.668 310.336 756.047C312.056 760.79 309.525 766.004 304.741 767.595C300.125 769.131 295.127 766.712 293.471 762.135L156.999 383.654C155.972 380.821 154.985 377.964 154.261 375.035C153.306 371.167 148.849 362.46 128.028 365.428C103.865 368.883 108.035 342.427 108.958 337.747C109.054 337.261 109.181 336.808 109.364 336.346C110.359 333.783 114.299 324.845 122.353 320.014C125.664 318.025 128.052 315.343 129.747 312.7C132.477 308.45 133.822 303.46 133.942 298.406C134.196 287.812 133.201 261.333 116.671 248.113C97.7521 232.975 80.7199 236.764 80.7199 236.764L80.7438 236.748Z" fill="url(#paint12_linear_1_2111)"/>
<path d="M349.025 205.357C363.311 205.357 374.892 193.777 374.892 179.491C374.892 165.205 363.311 153.624 349.025 153.624C334.739 153.624 323.158 165.205 323.158 179.491C323.158 193.777 334.739 205.357 349.025 205.357Z" fill="url(#paint13_linear_1_2111)"/>
<path d="M206.949 526.128C226.73 526.128 242.765 510.093 242.765 490.313C242.765 470.532 226.73 454.497 206.949 454.497C187.169 454.497 171.134 470.532 171.134 490.313C171.134 510.093 187.169 526.128 206.949 526.128Z" fill="url(#paint14_linear_1_2111)"/>
<path d="M290.113 747.578C290.113 747.578 304.877 715.026 352.797 722.07C400.718 729.114 400.766 755.235 400.766 755.235C400.766 755.235 410.715 705.555 462.003 696.052C513.29 686.541 551.215 717.151 551.215 717.151C551.215 717.151 636.455 687.608 648.664 761.204C660.874 834.801 591.654 841.2 591.654 841.2C591.654 841.2 591.607 891.564 520.732 918.37C449.857 945.176 399.572 917.447 399.572 917.447C399.572 917.447 335.885 980.195 251.44 950.103C167.003 920.01 139.823 856.569 139.823 856.569C139.823 856.569 76.9872 883.932 54.5827 811.497C32.1781 739.062 127.216 738.179 127.216 738.179C127.216 738.179 134.698 695.789 205.326 696.951C275.954 698.106 290.121 747.586 290.121 747.586L290.113 747.578Z" fill="url(#paint15_radial_1_2111)"/>
<path d="M300.053 68.4552H406.194C406.194 68.4552 444.421 80.7836 466.714 131.331H239.565C239.565 131.331 254.687 90.7403 300.053 68.4552Z" fill="url(#paint16_linear_1_2111)"/>
</g>
<defs>
<radialGradient id="paint0_radial_1_2111" cx="0" cy="0" r="1" gradientUnits="userSpaceOnUse" gradientTransform="translate(546.17 669.406) rotate(32.33) scale(148.721 111.541)">
<stop stop-color="white"/>
<stop offset="0.56" stop-color="#FDFFFF"/>
<stop offset="0.76" stop-color="#F6FFFF"/>
<stop offset="0.91" stop-color="#EAFFFF"/>
<stop offset="1" stop-color="#DEFFFF"/>
</radialGradient>
<radialGradient id="paint1_radial_1_2111" cx="0" cy="0" r="1" gradientUnits="userSpaceOnUse" gradientTransform="translate(200.391 713.442) scale(153.25 153.25)">
<stop stop-color="white"/>
<stop offset="0.56" stop-color="#FDFFFF"/>
<stop offset="0.76" stop-color="#F6FFFF"/>
<stop offset="0.91" stop-color="#EAFFFF"/>
<stop offset="1" stop-color="#DEFFFF"/>
</radialGradient>
<linearGradient id="paint2_linear_1_2111" x1="227.157" y1="356.57" x2="479.13" y2="356.57" gradientUnits="userSpaceOnUse">
<stop stop-color="#F1F1F1"/>
<stop offset="0.01" stop-color="#ECECEC"/>
<stop offset="0.1" stop-color="#D7D7D7"/>
<stop offset="0.2" stop-color="#C6C6C6"/>
<stop offset="0.33" stop-color="#BABABA"/>
<stop offset="0.51" stop-color="#B3B3B3"/>
<stop offset="1" stop-color="#B2B2B2"/>
</linearGradient>
<linearGradient id="paint3_linear_1_2111" x1="207.467" y1="277.728" x2="404.809" y2="568.382" gradientUnits="userSpaceOnUse">
<stop stop-color="#F1F1F1"/>
<stop offset="0.01" stop-color="#ECECEC"/>
<stop offset="0.1" stop-color="#D7D7D7"/>
<stop offset="0.2" stop-color="#C6C6C6"/>
<stop offset="0.33" stop-color="#BABABA"/>
<stop offset="0.51" stop-color="#B3B3B3"/>
<stop offset="1" stop-color="#B2B2B2"/>
</linearGradient>
<linearGradient id="paint4_linear_1_2111" x1="550.661" y1="336.435" x2="618.37" y2="359.877" gradientUnits="userSpaceOnUse">
<stop stop-color="#FFEAE1"/>
<stop offset="1" stop-color="#FFA86A"/>
</linearGradient>
<linearGradient id="paint5_linear_1_2111" x1="191.859" y1="427.58" x2="582.557" y2="635.866" gradientUnits="userSpaceOnUse">
<stop stop-color="white"/>
<stop offset="0.47" stop-color="#F0F0F0"/>
<stop offset="1" stop-color="#E5E5E5"/>
</linearGradient>
<linearGradient id="paint6_linear_1_2111" x1="209.167" y1="187.987" x2="258.061" y2="204.918" gradientUnits="userSpaceOnUse">
<stop stop-color="#FFEAE1"/>
<stop offset="1" stop-color="#FFA86A"/>
</linearGradient>
<linearGradient id="paint7_linear_1_2111" x1="445.53" y1="187.974" x2="494.433" y2="204.898" gradientUnits="userSpaceOnUse">
<stop stop-color="#FFEAE1"/>
<stop offset="1" stop-color="#FFA86A"/>
</linearGradient>
<linearGradient id="paint8_linear_1_2111" x1="257.46" y1="131.961" x2="456.362" y2="230.827" gradientUnits="userSpaceOnUse">
<stop stop-color="#FFEAE1"/>
<stop offset="1" stop-color="#FFA86A"/>
</linearGradient>
<linearGradient id="paint9_linear_1_2111" x1="274.099" y1="350.84" x2="438.754" y2="395.72" gradientUnits="userSpaceOnUse">
<stop stop-color="#F1F1F1"/>
<stop offset="1" stop-color="#CBCBCB"/>
</linearGradient>
<linearGradient id="paint10_linear_1_2111" x1="285.226" y1="218.896" x2="419.995" y2="235.506" gradientUnits="userSpaceOnUse">
<stop stop-color="#F1F1F1"/>
<stop offset="1" stop-color="#B2B2B2"/>
</linearGradient>
<linearGradient id="paint11_linear_1_2111" x1="326.442" y1="15.326" x2="379.515" y2="45.9681" gradientUnits="userSpaceOnUse">
<stop stop-color="#F1F1F1"/>
<stop offset="0.01" stop-color="#ECECEC"/>
<stop offset="0.1" stop-color="#D7D7D7"/>
<stop offset="0.2" stop-color="#C6C6C6"/>
<stop offset="0.33" stop-color="#BABABA"/>
<stop offset="0.51" stop-color="#B3B3B3"/>
<stop offset="1" stop-color="#B2B2B2"/>
</linearGradient>
<linearGradient id="paint12_linear_1_2111" x1="36.8501" y1="490.75" x2="310.893" y2="490.75" gradientUnits="userSpaceOnUse">
<stop stop-color="#C59B6D"/>
<stop offset="1" stop-color="#754C24"/>
</linearGradient>
<linearGradient id="paint13_linear_1_2111" x1="325.357" y1="171.267" x2="374.259" y2="188.199" gradientUnits="userSpaceOnUse">
<stop stop-color="#FFEAE1"/>
<stop offset="1" stop-color="#FFA86A"/>
</linearGradient>
<linearGradient id="paint14_linear_1_2111" x1="174.197" y1="478.941" x2="241.898" y2="502.383" gradientUnits="userSpaceOnUse">
<stop stop-color="#FFEAE1"/>
<stop offset="1" stop-color="#FFA86A"/>
</linearGradient>
<radialGradient id="paint15_radial_1_2111" cx="0" cy="0" r="1" gradientUnits="userSpaceOnUse" gradientTransform="translate(350.641 824.082) scale(231.423 129.597)">
<stop stop-color="white"/>
<stop offset="0.56" stop-color="#FDFFFF"/>
<stop offset="0.76" stop-color="#F6FFFF"/>
<stop offset="0.91" stop-color="#EAFFFF"/>
<stop offset="1" stop-color="#DEFFFF"/>
</radialGradient>
<linearGradient id="paint16_linear_1_2111" x1="239.565" y1="99.8932" x2="466.714" y2="99.8932" gradientUnits="userSpaceOnUse">
<stop stop-color="white"/>
<stop offset="1" stop-color="#E5E5E5"/>
</linearGradient>
<clipPath id="clip0_1_2111">
<rect width="701.122" height="958.269" fill="white"/>
</clipPath>
</defs>
</svg>
