<svg width="162" height="222" viewBox="0 0 162 222" fill="none" xmlns="http://www.w3.org/2000/svg">
<g id="form2" clip-path="url(#clip0_1_774)">
<path id="Vector" d="M90.8789 133.503C90.8789 133.503 96.0097 125.645 110.207 125.884C124.404 126.124 131.522 137.089 131.522 137.089C131.522 137.089 140.32 131.825 147.431 138.452C154.543 145.079 146.262 150.287 146.262 150.287C146.262 150.287 161.706 152.131 161.994 167.286C162.283 182.44 143.529 183.547 143.529 183.547L90.8789 133.503Z" fill="url(#paint0_radial_1_774)"/>
<path id="Vector_2" d="M15.2746 188.94C15.2746 188.94 0 189.772 0 173.968C0 158.165 15.2746 159.424 15.2746 159.424C15.2746 159.424 9.434 151.929 13.9266 143.611C18.4193 135.294 30.1005 139.037 30.1005 139.037C30.1005 139.037 31.8972 131.967 40.4338 131.967C48.9704 131.967 52.115 136.542 52.115 136.542L70.6465 142.45L64.6955 183.536L15.2765 188.942L15.2746 188.94Z" fill="url(#paint1_radial_1_774)"/>
<path id="Vector_3" d="M110.707 43.7136C110.707 60.6861 81.596 152.229 81.596 152.229C81.596 152.229 52.4849 60.6879 52.4849 43.7136C52.4849 26.7392 65.5178 12.9805 81.596 12.9805C97.6743 12.9805 110.707 26.7392 110.707 43.7136Z" fill="url(#paint2_linear_1_774)"/>
<path id="Vector_4" d="M52.6703 39.4878L40.1045 170.188H121.281L110.615 39.4878H52.6703Z" fill="url(#paint3_linear_1_774)"/>
<path id="Vector_5" d="M66.4354 52.2749L54.059 65.6206C50.0868 69.9038 46.795 74.7697 44.2958 80.0523C43.0729 82.6355 43.9666 80.5207 42.8485 83.1592C42.4826 84.0221 42.1773 84.0258 41.929 85.1874C39.0878 98.4483 51.6113 106.165 59.0316 117.27C62.6912 122.748 58.9746 112.773 62.5257 115.242C71.3013 121.34 61.2384 109.342 61.2384 109.342L59.0316 110.632L46.692 174.245H111.954L99.8571 113.214L105.374 115.611C105.374 115.611 110.531 118.139 116.452 113.26C121.259 109.299 123.135 101.983 126.706 97.9099C127.501 97.0046 126.335 95.2953 125.787 94.2222L116.04 83.8967C115.376 82.595 119.417 80.7899 118.431 81.8685C115.067 85.5543 113.649 81.4997 109.212 74.8398C103.66 66.5075 95.3516 56.324 90.973 52.2749H66.4354Z" fill="#F1F1F1"/>
<path id="Vector_6" d="M53.7975 51.4469C57.0984 51.4469 59.7742 48.7639 59.7742 45.4544C59.7742 42.1448 57.0984 39.4619 53.7975 39.4619C50.4967 39.4619 47.8208 42.1448 47.8208 45.4544C47.8208 48.7639 50.4967 51.4469 53.7975 51.4469Z" fill="url(#paint4_linear_1_774)"/>
<path id="Vector_7" d="M108.412 51.4469C111.713 51.4469 114.388 48.7639 114.388 45.4544C114.388 42.1448 111.713 39.4619 108.412 39.4619C105.111 39.4619 102.435 42.1448 102.435 45.4544C102.435 48.7639 105.111 51.4469 108.412 51.4469Z" fill="url(#paint5_linear_1_774)"/>
<path id="Vector_8" d="M81.5683 67.3076C95.7375 67.3076 107.224 55.7909 107.224 41.5842C107.224 27.3776 95.7375 15.8608 81.5683 15.8608C67.399 15.8608 55.9126 27.3776 55.9126 41.5842C55.9126 55.7909 67.399 67.3076 81.5683 67.3076Z" fill="url(#paint6_linear_1_774)"/>
<path id="Vector_9" d="M101.315 60.2751C101.315 71.7714 81.5975 133.772 81.5975 133.772C81.5975 133.772 61.8799 71.7714 61.8799 60.2751C61.8799 48.7787 70.707 39.46 81.5975 39.46C92.488 39.46 101.315 48.7787 101.315 60.2751Z" fill="url(#paint7_linear_1_774)"/>
<path id="Vector_10" d="M65.7788 60.2952C65.7788 50.8252 72.8019 43.1475 81.4672 43.1475C90.1325 43.1475 97.1556 50.8252 97.1556 60.2952" fill="url(#paint8_linear_1_774)"/>
<path id="Vector_11" d="M81.5591 14.1995C85.4693 14.1995 88.6392 11.0213 88.6392 7.10073C88.6392 3.18018 85.4693 0.00195312 81.5591 0.00195312C77.6489 0.00195312 74.479 3.18018 74.479 7.10073C74.479 11.0213 77.6489 14.1995 81.5591 14.1995Z" fill="url(#paint9_linear_1_774)"/>
<path id="Vector_12" d="M80.6452 47.5748C83.946 47.5748 86.6219 44.8919 86.6219 41.5823C86.6219 38.2728 83.946 35.5898 80.6452 35.5898C77.3443 35.5898 74.6685 38.2728 74.6685 41.5823C74.6685 44.8919 77.3443 47.5748 80.6452 47.5748Z" fill="url(#paint10_linear_1_774)"/>
<path id="Vector_13" d="M67.0329 173.19C67.0329 173.19 70.4442 165.649 81.5168 167.281C92.5893 168.912 92.6003 174.964 92.6003 174.964C92.6003 174.964 94.8991 163.455 106.749 161.253C118.6 159.05 127.363 166.141 127.363 166.141C127.363 166.141 147.058 159.297 149.879 176.347C152.7 193.397 136.707 194.879 136.707 194.879C136.707 194.879 136.696 206.547 120.319 212.757C103.943 218.967 92.3245 212.543 92.3245 212.543C92.3245 212.543 77.6089 227.08 58.0973 220.108C38.5875 213.137 32.3073 198.44 32.3073 198.44C32.3073 198.44 17.7885 204.779 12.6118 187.998C7.43503 171.217 29.3944 171.013 29.3944 171.013C29.3944 171.013 31.123 161.192 47.4422 161.461C63.7614 161.729 67.0347 173.192 67.0347 173.192L67.0329 173.19Z" fill="url(#paint11_radial_1_774)"/>
<path id="Vector_14" d="M69.3298 15.8589H93.8545C93.8545 15.8589 102.687 18.715 107.838 30.4252H55.3535C55.3535 30.4252 58.8476 21.0216 69.3298 15.8589Z" fill="url(#paint12_linear_1_774)"/>
<path id="Vector_15" d="M68.5939 42.2255C69.6095 42.2255 70.4329 41.0286 70.4329 39.552C70.4329 38.0754 69.6095 36.8784 68.5939 36.8784C67.5782 36.8784 66.7549 38.0754 66.7549 39.552C66.7549 41.0286 67.5782 42.2255 68.5939 42.2255Z" fill="black"/>
<path id="Vector_16" d="M92.839 42.2255C93.8546 42.2255 94.678 41.0286 94.678 39.552C94.678 38.0754 93.8546 36.8784 92.839 36.8784C91.8233 36.8784 91 38.0754 91 39.552C91 41.0286 91.8233 42.2255 92.839 42.2255Z" fill="black"/>
<path id="Vector_17" d="M92.9517 31.6146C92.9517 31.6146 88.5804 32.0535 87.2674 36.8751C86.4141 40.0096 87.7841 42.4859 88.8838 43.7489C89.6231 44.5971 90.6309 45.1908 91.749 45.2922C92.4349 45.3531 93.2091 45.2517 93.884 44.7372C95.0757 43.8301 95.8609 44.6543 96.2214 45.2185C96.3961 45.4932 96.5009 45.8067 96.5267 46.1312C96.6186 47.3112 96.3281 50.903 90.3274 50.903C87.0485 50.903 85.0808 48.7107 84.051 46.4096C82.7949 43.6014 82.5338 40.4559 83.0763 37.4283C83.8248 33.2428 86.0297 27.2023 92.5122 26.356C102.568 25.0414 106.503 33.8088 106.503 33.8088C106.503 33.8088 113.936 46.7489 106.503 52.9921C100.229 58.2618 106.729 58.4591 108.907 58.3909C109.218 58.3816 109.523 58.3282 109.828 58.2655C110.474 58.1327 112.204 58.3208 113.935 63.1793C115.921 68.7551 141.361 139.09 146.001 151.92C146.398 153.018 145.813 154.226 144.708 154.595C143.642 154.951 142.487 154.39 142.104 153.33L110.571 65.6482C110.334 64.9918 110.106 64.3299 109.938 63.6513C109.718 62.7552 108.688 60.7381 103.877 61.4258C98.2939 62.2261 99.2576 56.0971 99.4709 55.013C99.493 54.9005 99.5224 54.7954 99.5647 54.6884C99.7945 54.0947 100.705 52.0241 102.566 50.9049C103.331 50.4439 103.883 49.8226 104.274 49.2104C104.905 48.2258 105.216 47.0697 105.243 45.8989C105.302 43.4447 105.072 37.3103 101.253 34.2476C96.8816 30.7407 92.9462 31.6183 92.9462 31.6183L92.9517 31.6146Z" fill="url(#paint13_linear_1_774)"/>
<path id="Vector_18" d="M121.196 99.2059C125.767 99.2059 129.472 95.4911 129.472 90.9086C129.472 86.3261 125.767 82.6113 121.196 82.6113C116.626 82.6113 112.921 86.3261 112.921 90.9086C112.921 95.4911 116.626 99.2059 121.196 99.2059Z" fill="url(#paint14_linear_1_774)"/>
<path id="Vector_19" d="M71.2524 32.9999C71.2524 32.9999 68.494 36.5032 64.9999 35.7657" stroke="black" stroke-miterlimit="10"/>
<path id="Vector_20" d="M90 32.9999C90 32.9999 92.7585 36.5032 96.2526 35.7657" stroke="black" stroke-miterlimit="10"/>
<path id="Vector_21" d="M57 37.1308C57 35.5462 60.5 27 60.5 27C60.5 27 64 35.5462 64 37.1309C64 38.7155 62.4331 40 60.5 40C58.5669 40 57 38.7155 57 37.1308Z" fill="#B5FFFF"/>
</g>
<defs>
<radialGradient id="paint0_radial_1_774" cx="0" cy="0" r="1" gradientUnits="userSpaceOnUse" gradientTransform="translate(126.197 155.08) rotate(32.3983) scale(34.3893 25.821)">
<stop stop-color="white"/>
<stop offset="0.56" stop-color="#FDFFFF"/>
<stop offset="0.76" stop-color="#F6FFFF"/>
<stop offset="0.91" stop-color="#EAFFFF"/>
<stop offset="1" stop-color="#DEFFFF"/>
</radialGradient>
<radialGradient id="paint1_radial_1_774" cx="0" cy="0" r="1" gradientUnits="userSpaceOnUse" gradientTransform="translate(46.302 165.282) scale(35.4097 35.5031)">
<stop stop-color="white"/>
<stop offset="0.56" stop-color="#FDFFFF"/>
<stop offset="0.76" stop-color="#F6FFFF"/>
<stop offset="0.91" stop-color="#EAFFFF"/>
<stop offset="1" stop-color="#DEFFFF"/>
</radialGradient>
<linearGradient id="paint2_linear_1_774" x1="52.4867" y1="82.6056" x2="110.707" y2="82.6056" gradientUnits="userSpaceOnUse">
<stop stop-color="#F1F1F1"/>
<stop offset="0.01" stop-color="#ECECEC"/>
<stop offset="0.1" stop-color="#D7D7D7"/>
<stop offset="0.2" stop-color="#C6C6C6"/>
<stop offset="0.33" stop-color="#BABABA"/>
<stop offset="0.51" stop-color="#B3B3B3"/>
<stop offset="1" stop-color="#B2B2B2"/>
</linearGradient>
<linearGradient id="paint3_linear_1_774" x1="47.9367" y1="64.3409" x2="93.699" y2="131.564" gradientUnits="userSpaceOnUse">
<stop stop-color="#F1F1F1"/>
<stop offset="0.01" stop-color="#ECECEC"/>
<stop offset="0.1" stop-color="#D7D7D7"/>
<stop offset="0.2" stop-color="#C6C6C6"/>
<stop offset="0.33" stop-color="#BABABA"/>
<stop offset="0.51" stop-color="#B3B3B3"/>
<stop offset="1" stop-color="#B2B2B2"/>
</linearGradient>
<linearGradient id="paint4_linear_1_774" x1="48.3303" y1="43.5501" x2="59.6341" y2="47.4541" gradientUnits="userSpaceOnUse">
<stop stop-color="#FFEAE1"/>
<stop offset="1" stop-color="#FFA86A"/>
</linearGradient>
<linearGradient id="paint5_linear_1_774" x1="102.944" y1="43.5453" x2="114.25" y2="47.4494" gradientUnits="userSpaceOnUse">
<stop stop-color="#FFEAE1"/>
<stop offset="1" stop-color="#FFA86A"/>
</linearGradient>
<linearGradient id="paint6_linear_1_774" x1="59.4875" y1="30.5688" x2="105.495" y2="53.3783" gradientUnits="userSpaceOnUse">
<stop stop-color="#FFEAE1"/>
<stop offset="1" stop-color="#FFA86A"/>
</linearGradient>
<linearGradient id="paint7_linear_1_774" x1="63.3327" y1="81.2782" x2="101.391" y2="91.6247" gradientUnits="userSpaceOnUse">
<stop stop-color="#F1F1F1"/>
<stop offset="1" stop-color="#CBCBCB"/>
</linearGradient>
<linearGradient id="paint8_linear_1_774" x1="65.9039" y1="50.7109" x2="97.0459" y2="54.5391" gradientUnits="userSpaceOnUse">
<stop stop-color="#F1F1F1"/>
<stop offset="1" stop-color="#B2B2B2"/>
</linearGradient>
<linearGradient id="paint9_linear_1_774" x1="75.428" y1="3.55049" x2="87.7073" y2="10.6213" gradientUnits="userSpaceOnUse">
<stop stop-color="#F1F1F1"/>
<stop offset="0.01" stop-color="#ECECEC"/>
<stop offset="0.1" stop-color="#D7D7D7"/>
<stop offset="0.2" stop-color="#C6C6C6"/>
<stop offset="0.33" stop-color="#BABABA"/>
<stop offset="0.51" stop-color="#B3B3B3"/>
<stop offset="1" stop-color="#B2B2B2"/>
</linearGradient>
<linearGradient id="paint10_linear_1_774" x1="75.1774" y1="39.6749" x2="86.4812" y2="43.5789" gradientUnits="userSpaceOnUse">
<stop stop-color="#FFEAE1"/>
<stop offset="1" stop-color="#FFA86A"/>
</linearGradient>
<radialGradient id="paint11_radial_1_774" cx="0" cy="0" r="1" gradientUnits="userSpaceOnUse" gradientTransform="translate(81.0184 190.914) scale(53.4722 30.0234)">
<stop stop-color="white"/>
<stop offset="0.56" stop-color="#FDFFFF"/>
<stop offset="0.76" stop-color="#F6FFFF"/>
<stop offset="0.91" stop-color="#EAFFFF"/>
<stop offset="1" stop-color="#DEFFFF"/>
</radialGradient>
<linearGradient id="paint12_linear_1_774" x1="55.3535" y1="23.142" x2="107.838" y2="23.142" gradientUnits="userSpaceOnUse">
<stop stop-color="white"/>
<stop offset="1" stop-color="#E5E5E5"/>
</linearGradient>
<linearGradient id="paint13_linear_1_774" x1="82.8097" y1="90.4589" x2="146.13" y2="90.4589" gradientUnits="userSpaceOnUse">
<stop stop-color="#C59B6D"/>
<stop offset="1" stop-color="#754C24"/>
</linearGradient>
<linearGradient id="paint14_linear_1_774" x1="113.628" y1="88.2659" x2="129.28" y2="93.6711" gradientUnits="userSpaceOnUse">
<stop stop-color="#FFEAE1"/>
<stop offset="1" stop-color="#FFA86A"/>
</linearGradient>
<clipPath id="clip0_1_774">
<rect width="162" height="222" fill="white"/>
</clipPath>
</defs>
</svg>
