<svg width="702" height="959" viewBox="0 0 702 959" fill="none" xmlns="http://www.w3.org/2000/svg">
<g clip-path="url(#clip0_1_2131)">
<path d="M393.317 576.27C393.317 576.27 415.522 542.348 476.966 543.383C538.409 544.418 569.218 591.75 569.218 591.75C569.218 591.75 607.294 569.027 638.071 597.631C668.848 626.236 633.009 648.72 633.009 648.72C633.009 648.72 699.849 656.679 701.098 722.094C702.348 787.509 621.182 792.284 621.182 792.284L393.317 576.27Z" fill="url(#paint0_radial_1_2131)"/>
<path d="M66.1072 815.564C66.1072 815.564 0 819.154 0 750.937C0 682.721 66.1072 688.157 66.1072 688.157C66.1072 688.157 40.8295 655.804 60.2733 619.901C79.7171 583.998 130.272 600.154 130.272 600.154C130.272 600.154 138.048 569.64 174.994 569.64C211.94 569.64 225.549 589.386 225.549 589.386L305.752 614.886L279.997 792.236L66.1152 815.572L66.1072 815.564Z" fill="url(#paint1_radial_1_2131)"/>
<path d="M479.13 188.691C479.13 261.954 353.14 657.101 353.14 657.101C353.14 657.101 227.149 261.962 227.149 188.691C227.149 115.421 283.554 56.0312 353.14 56.0312C422.725 56.0312 479.13 115.421 479.13 188.691Z" fill="url(#paint2_linear_1_2131)"/>
<path d="M227.953 170.449L173.569 734.621H524.894L478.732 170.449H227.953Z" fill="url(#paint3_linear_1_2131)"/>
<path d="M287.526 225.645L233.962 283.252C216.771 301.741 202.524 322.744 191.708 345.547C186.415 356.697 190.283 347.568 185.444 358.958C183.86 362.683 182.539 362.698 181.465 367.713C169.168 424.954 223.369 458.262 255.483 506.199C271.321 529.845 255.236 486.787 270.605 497.444C308.585 523.764 265.034 471.975 265.034 471.975L255.483 477.546L202.078 752.131H484.527L432.172 488.689L456.049 499.036C456.049 499.036 478.366 509.947 503.994 488.888C524.799 471.792 532.917 440.211 548.373 422.63C551.812 418.722 546.766 411.344 544.394 406.712L502.211 362.141C499.338 356.522 516.824 348.73 512.558 353.386C498.001 369.296 491.865 351.795 472.66 323.047C448.632 287.08 412.673 243.123 393.723 225.645H287.526Z" fill="#F1F1F1"/>
<path d="M232.832 222.071C247.118 222.071 258.699 210.49 258.699 196.205C258.699 181.919 247.118 170.338 232.832 170.338C218.546 170.338 206.965 181.919 206.965 196.205C206.965 210.49 218.546 222.071 232.832 222.071Z" fill="url(#paint4_linear_1_2131)"/>
<path d="M469.197 222.071C483.483 222.071 495.064 210.49 495.064 196.205C495.064 181.919 483.483 170.338 469.197 170.338C454.912 170.338 443.331 181.919 443.331 196.205C443.331 210.49 454.912 222.071 469.197 222.071Z" fill="url(#paint5_linear_1_2131)"/>
<path d="M353.02 290.534C414.344 290.534 464.056 240.822 464.056 179.499C464.056 118.175 414.344 68.4631 353.02 68.4631C291.697 68.4631 241.985 118.175 241.985 179.499C241.985 240.822 291.697 290.534 353.02 290.534Z" fill="url(#paint6_linear_1_2131)"/>
<path d="M438.484 260.179C438.484 309.803 353.148 577.432 353.148 577.432C353.148 577.432 267.812 309.803 267.812 260.179C267.812 210.555 306.015 170.33 353.148 170.33C400.281 170.33 438.484 210.555 438.484 260.179Z" fill="url(#paint7_linear_1_2131)"/>
<path d="M284.685 260.266C284.685 219.389 315.08 186.248 352.583 186.248C390.085 186.248 420.481 219.389 420.481 260.266" fill="url(#paint8_linear_1_2131)"/>
<path d="M352.981 61.292C369.904 61.292 383.623 47.5731 383.623 30.65C383.623 13.7268 369.904 0.00793457 352.981 0.00793457C336.057 0.00793457 322.339 13.7268 322.339 30.65C322.339 47.5731 336.057 61.292 352.981 61.292Z" fill="url(#paint9_linear_1_2131)"/>
<path d="M349.025 205.357C363.311 205.357 374.892 193.777 374.892 179.491C374.892 165.205 363.311 153.624 349.025 153.624C334.739 153.624 323.158 165.205 323.158 179.491C323.158 193.777 334.739 205.357 349.025 205.357Z" fill="url(#paint10_linear_1_2131)"/>
<path d="M290.113 747.578C290.113 747.578 304.877 715.026 352.798 722.07C400.719 729.114 400.766 755.235 400.766 755.235C400.766 755.235 410.715 705.555 462.003 696.052C513.29 686.541 551.215 717.151 551.215 717.151C551.215 717.151 636.455 687.608 648.664 761.204C660.874 834.801 591.654 841.2 591.654 841.2C591.654 841.2 591.607 891.564 520.732 918.37C449.857 945.176 399.572 917.447 399.572 917.447C399.572 917.447 335.885 980.195 251.44 950.103C167.003 920.01 139.823 856.569 139.823 856.569C139.823 856.569 76.9872 883.932 54.5827 811.497C32.1782 739.062 127.216 738.179 127.216 738.179C127.216 738.179 134.698 695.789 205.326 696.951C275.954 698.106 290.121 747.586 290.121 747.586L290.113 747.578Z" fill="url(#paint11_radial_1_2131)"/>
<path d="M300.053 68.4552H406.194C406.194 68.4552 444.421 80.7836 466.714 131.331H239.565C239.565 131.331 254.687 90.7403 300.053 68.4552Z" fill="url(#paint12_linear_1_2131)"/>
<path d="M296.87 182.269C301.265 182.269 304.829 177.102 304.829 170.728C304.829 164.354 301.265 159.188 296.87 159.188C292.474 159.188 288.911 164.354 288.911 170.728C288.911 177.102 292.474 182.269 296.87 182.269Z" fill="black"/>
<path d="M402.286 136.465C402.286 136.465 383.368 138.359 377.685 159.171C373.992 172.702 379.922 183.391 384.681 188.843C387.881 192.504 392.242 195.066 397.081 195.504C400.05 195.767 403.401 195.329 406.322 193.109C411.479 189.193 414.878 192.75 416.437 195.186C417.194 196.372 417.647 197.725 417.759 199.126C418.157 204.219 416.899 219.723 390.929 219.723C376.738 219.723 368.222 210.26 363.765 200.327C358.329 188.206 357.199 174.628 359.547 161.559C362.786 143.492 372.329 117.419 400.384 113.766C443.904 108.091 460.936 145.936 460.936 145.936C460.936 145.936 493.106 201.792 460.936 228.741C433.78 251.488 461.915 252.339 471.339 252.045C472.684 252.005 474.005 251.774 475.326 251.504C478.12 250.931 485.609 251.742 493.098 272.714C501.694 296.782 611.798 600.385 631.879 655.764C633.598 660.507 631.067 665.72 626.284 667.312C621.668 668.848 616.669 666.429 615.014 661.852L478.541 283.371C477.515 280.538 476.528 277.681 475.803 274.752C474.848 270.884 470.391 262.177 449.571 265.145C425.407 268.599 429.578 242.144 430.501 237.464C430.597 236.978 430.724 236.525 430.907 236.063C431.902 233.5 435.841 224.562 443.896 219.731C447.207 217.742 449.595 215.059 451.29 212.417C454.02 208.167 455.365 203.177 455.484 198.123C455.739 187.529 454.744 161.05 438.213 147.83C419.295 132.692 402.263 136.48 402.263 136.48L402.286 136.465Z" fill="url(#paint13_linear_1_2131)"/>
<path d="M524.528 428.225C544.309 428.225 560.344 412.19 560.344 392.409C560.344 372.629 544.309 356.594 524.528 356.594C504.748 356.594 488.713 372.629 488.713 392.409C488.713 412.19 504.748 428.225 524.528 428.225Z" fill="url(#paint14_linear_1_2131)"/>
<path d="M387.602 171.126C387.602 171.126 399.541 156.004 414.663 159.187" stroke="black" stroke-width="3" stroke-miterlimit="10"/>
<path d="M387.92 171.237C387.92 171.237 404.077 160.739 417.377 168.603" stroke="black" stroke-width="3" stroke-miterlimit="10"/>
</g>
<defs>
<radialGradient id="paint0_radial_1_2131" cx="0" cy="0" r="1" gradientUnits="userSpaceOnUse" gradientTransform="translate(546.17 669.406) rotate(32.33) scale(148.721 111.541)">
<stop stop-color="white"/>
<stop offset="0.56" stop-color="#FDFFFF"/>
<stop offset="0.76" stop-color="#F6FFFF"/>
<stop offset="0.91" stop-color="#EAFFFF"/>
<stop offset="1" stop-color="#DEFFFF"/>
</radialGradient>
<radialGradient id="paint1_radial_1_2131" cx="0" cy="0" r="1" gradientUnits="userSpaceOnUse" gradientTransform="translate(200.391 713.442) scale(153.25 153.25)">
<stop stop-color="white"/>
<stop offset="0.56" stop-color="#FDFFFF"/>
<stop offset="0.76" stop-color="#F6FFFF"/>
<stop offset="0.91" stop-color="#EAFFFF"/>
<stop offset="1" stop-color="#DEFFFF"/>
</radialGradient>
<linearGradient id="paint2_linear_1_2131" x1="227.157" y1="356.57" x2="479.13" y2="356.57" gradientUnits="userSpaceOnUse">
<stop stop-color="#F1F1F1"/>
<stop offset="0.01" stop-color="#ECECEC"/>
<stop offset="0.1" stop-color="#D7D7D7"/>
<stop offset="0.2" stop-color="#C6C6C6"/>
<stop offset="0.33" stop-color="#BABABA"/>
<stop offset="0.51" stop-color="#B3B3B3"/>
<stop offset="1" stop-color="#B2B2B2"/>
</linearGradient>
<linearGradient id="paint3_linear_1_2131" x1="207.467" y1="277.728" x2="404.809" y2="568.382" gradientUnits="userSpaceOnUse">
<stop stop-color="#F1F1F1"/>
<stop offset="0.01" stop-color="#ECECEC"/>
<stop offset="0.1" stop-color="#D7D7D7"/>
<stop offset="0.2" stop-color="#C6C6C6"/>
<stop offset="0.33" stop-color="#BABABA"/>
<stop offset="0.51" stop-color="#B3B3B3"/>
<stop offset="1" stop-color="#B2B2B2"/>
</linearGradient>
<linearGradient id="paint4_linear_1_2131" x1="209.17" y1="187.985" x2="258.065" y2="204.916" gradientUnits="userSpaceOnUse">
<stop stop-color="#FFEAE1"/>
<stop offset="1" stop-color="#FFA86A"/>
</linearGradient>
<linearGradient id="paint5_linear_1_2131" x1="445.535" y1="187.964" x2="494.437" y2="204.896" gradientUnits="userSpaceOnUse">
<stop stop-color="#FFEAE1"/>
<stop offset="1" stop-color="#FFA86A"/>
</linearGradient>
<linearGradient id="paint6_linear_1_2131" x1="257.457" y1="131.95" x2="456.365" y2="230.825" gradientUnits="userSpaceOnUse">
<stop stop-color="#FFEAE1"/>
<stop offset="1" stop-color="#FFA86A"/>
</linearGradient>
<linearGradient id="paint7_linear_1_2131" x1="274.099" y1="350.84" x2="438.754" y2="395.72" gradientUnits="userSpaceOnUse">
<stop stop-color="#F1F1F1"/>
<stop offset="1" stop-color="#CBCBCB"/>
</linearGradient>
<linearGradient id="paint8_linear_1_2131" x1="285.226" y1="218.896" x2="419.995" y2="235.506" gradientUnits="userSpaceOnUse">
<stop stop-color="#F1F1F1"/>
<stop offset="1" stop-color="#B2B2B2"/>
</linearGradient>
<linearGradient id="paint9_linear_1_2131" x1="326.446" y1="15.3253" x2="379.519" y2="45.9674" gradientUnits="userSpaceOnUse">
<stop stop-color="#F1F1F1"/>
<stop offset="0.01" stop-color="#ECECEC"/>
<stop offset="0.1" stop-color="#D7D7D7"/>
<stop offset="0.2" stop-color="#C6C6C6"/>
<stop offset="0.33" stop-color="#BABABA"/>
<stop offset="0.51" stop-color="#B3B3B3"/>
<stop offset="1" stop-color="#B2B2B2"/>
</linearGradient>
<linearGradient id="paint10_linear_1_2131" x1="325.361" y1="171.257" x2="374.255" y2="188.189" gradientUnits="userSpaceOnUse">
<stop stop-color="#FFEAE1"/>
<stop offset="1" stop-color="#FFA86A"/>
</linearGradient>
<radialGradient id="paint11_radial_1_2131" cx="0" cy="0" r="1" gradientUnits="userSpaceOnUse" gradientTransform="translate(350.641 824.082) scale(231.423 129.597)">
<stop stop-color="white"/>
<stop offset="0.56" stop-color="#FDFFFF"/>
<stop offset="0.76" stop-color="#F6FFFF"/>
<stop offset="0.91" stop-color="#EAFFFF"/>
<stop offset="1" stop-color="#DEFFFF"/>
</radialGradient>
<linearGradient id="paint12_linear_1_2131" x1="239.565" y1="99.8932" x2="466.714" y2="99.8932" gradientUnits="userSpaceOnUse">
<stop stop-color="white"/>
<stop offset="1" stop-color="#E5E5E5"/>
</linearGradient>
<linearGradient id="paint13_linear_1_2131" x1="358.393" y1="390.467" x2="632.436" y2="390.467" gradientUnits="userSpaceOnUse">
<stop stop-color="#C59B6D"/>
<stop offset="1" stop-color="#754C24"/>
</linearGradient>
<linearGradient id="paint14_linear_1_2131" x1="491.775" y1="381.002" x2="559.476" y2="404.444" gradientUnits="userSpaceOnUse">
<stop stop-color="#FFEAE1"/>
<stop offset="1" stop-color="#FFA86A"/>
</linearGradient>
<clipPath id="clip0_1_2131">
<rect width="701.122" height="958.269" fill="white"/>
</clipPath>
</defs>
</svg>
