<svg width="182" height="182" viewBox="0 0 182 182" fill="none" xmlns="http://www.w3.org/2000/svg">
<g id="Group 11">
<g id="Group 2">
<circle id="Ellipse 2" cx="91" cy="91" r="91" fill="#ECECEC"/>
<g id="Clip path group">
<mask id="mask0_1_80" style="mask-type:luminance" maskUnits="userSpaceOnUse" x="4" y="8" width="174" height="174">
<g id="clippath">
<path id="Vector" d="M91 182C138.821 182 177.588 143.233 177.588 95.4121C177.588 47.591 138.821 8.82425 91 8.82425C43.1788 8.82425 4.41211 47.591 4.41211 95.4121C4.41211 143.233 43.1788 182 91 182Z" fill="white"/>
</g>
</mask>
<g mask="url(#mask0_1_80)">
<g id="Group">
<g id="Group_2">
<path id="Vector_2" d="M134.162 89.3404C134.162 113.715 92.2446 245.18 92.2446 245.18C92.2446 245.18 50.3276 113.717 50.3276 89.3404C50.3276 64.9634 69.0936 45.2044 92.2446 45.2044C115.396 45.2044 134.162 64.9634 134.162 89.3404Z" fill="#B2B2B2"/>
<path id="Vector_3" d="M50.5949 83.2713L32.5015 270.971H149.387L134.029 83.2713H50.5949Z" fill="#B2B2B2"/>
<path id="Vector_4" d="M52.2181 100.449C56.971 100.449 60.824 96.5955 60.824 91.8427C60.824 87.0898 56.971 83.2368 52.2181 83.2368C47.4653 83.2368 43.6123 87.0898 43.6123 91.8427C43.6123 96.5955 47.4653 100.449 52.2181 100.449Z" fill="#F1F1F1"/>
<path id="Vector_5" d="M130.857 100.449C135.61 100.449 139.463 96.5955 139.463 91.8427C139.463 87.0898 135.61 83.2368 130.857 83.2368C126.104 83.2368 122.251 87.0898 122.251 91.8427C122.251 96.5955 126.104 100.449 130.857 100.449Z" fill="#F1F1F1"/>
<path id="Vector_6" d="M92.2047 123.226C112.607 123.226 129.146 106.687 129.146 86.2846C129.146 65.8824 112.607 49.3431 92.2047 49.3431C71.8025 49.3431 55.2632 65.8824 55.2632 86.2846C55.2632 106.687 71.8025 123.226 92.2047 123.226Z" fill="#F1F1F1"/>
<path id="Vector_7" d="M120.639 113.124C120.639 129.634 92.2472 218.674 92.2472 218.674C92.2472 218.674 63.856 129.634 63.856 113.124C63.856 96.6143 76.5661 83.2316 92.2472 83.2316C107.928 83.2316 120.639 96.6143 120.639 113.124Z" fill="#E5E5E5"/>
<path id="Vector_8" d="M69.4697 113.153C69.4697 99.5536 79.5822 88.5275 92.0594 88.5275C104.536 88.5275 114.649 99.5536 114.649 113.153" fill="#CBCBCB"/>
<path id="Vector_9" d="M92.1917 46.9547C97.822 46.9547 102.386 42.3904 102.386 36.7601C102.386 31.1298 97.822 26.5655 92.1917 26.5655C86.5613 26.5655 81.9971 31.1298 81.9971 36.7601C81.9971 42.3904 86.5613 46.9547 92.1917 46.9547Z" fill="#B2B2B2"/>
<path id="Vector_10" d="M73.5234 87.2035C74.9859 87.2035 76.1714 85.4844 76.1714 83.3639C76.1714 81.2434 74.9859 79.5244 73.5234 79.5244C72.061 79.5244 70.8755 81.2434 70.8755 83.3639C70.8755 85.4844 72.061 87.2035 73.5234 87.2035Z" fill="black"/>
<path id="Vector_11" d="M109.801 87.2035C111.263 87.2035 112.449 85.4844 112.449 83.3639C112.449 81.2434 111.263 79.5244 109.801 79.5244C108.338 79.5244 107.153 81.2434 107.153 83.3639C107.153 85.4844 108.338 87.2035 109.801 87.2035Z" fill="black"/>
<path id="Vector_12" d="M90.8758 94.8878C95.6287 94.8878 99.4817 91.0348 99.4817 86.282C99.4817 81.5291 95.6287 77.6761 90.8758 77.6761C86.123 77.6761 82.27 81.5291 82.27 86.282C82.27 91.0348 86.123 94.8878 90.8758 94.8878Z" fill="#F1F1F1"/>
<path id="Vector_13" d="M74.5829 49.3379H109.896C109.896 49.3379 122.614 53.4395 130.031 70.2566H54.4585C54.4585 70.2566 59.4896 56.7521 74.5829 49.3379Z" fill="#E5E5E5"/>
</g>
</g>
</g>
</g>
</g>
<g id="Group 1">
<circle id="Ellipse 3" cx="164.5" cy="156.5" r="17.5" fill="#969696"/>
<rect id="Rectangle 4" x="154.903" y="151.419" width="19.1935" height="12.4194" rx="2" fill="white"/>
<rect id="Rectangle 5" x="158.291" y="148.032" width="12.4194" height="7.90323" rx="2" fill="white"/>
<circle id="Ellipse 4" cx="164.5" cy="157.629" r="3.95161" fill="#969696"/>
</g>
</g>
</svg>
