<svg width="145" height="198" viewBox="0 0 145 198" fill="none" xmlns="http://www.w3.org/2000/svg">
<g id="Layer_3" clip-path="url(#clip0_1_119)">
<path id="Vector" d="M81.3423 119.07C81.3423 119.07 85.9346 112.061 98.6418 112.275C111.349 112.489 117.721 122.269 117.721 122.269C117.721 122.269 125.595 117.574 131.96 123.484C138.325 129.395 130.913 134.04 130.913 134.04C130.913 134.04 144.737 135.685 144.995 149.201C145.253 162.717 128.467 163.704 128.467 163.704L81.3423 119.07Z" fill="url(#paint0_radial_1_119)"/>
<path id="Vector_2" d="M13.6717 168.514C13.6717 168.514 0 169.256 0 155.161C0 141.066 13.6717 142.189 13.6717 142.189C13.6717 142.189 8.44401 135.504 12.4652 128.086C16.4864 120.667 26.9418 124.006 26.9418 124.006C26.9418 124.006 28.55 117.7 36.1907 117.7C43.8315 117.7 46.6462 121.78 46.6462 121.78L63.233 127.049L57.9065 163.694L13.6734 168.516L13.6717 168.514Z" fill="url(#paint1_radial_1_119)"/>
<path id="Vector_3" d="M99.0896 38.9879C99.0896 54.1256 73.0333 135.772 73.0333 135.772C73.0333 135.772 46.9771 54.1272 46.9771 38.9879C46.9771 23.8486 58.6423 11.5773 73.0333 11.5773C87.4244 11.5773 99.0896 23.8486 99.0896 38.9879Z" fill="url(#paint2_linear_1_119)"/>
<path id="Vector_4" d="M47.1432 35.2187L35.896 151.789H108.554L99.0072 35.2187H47.1432Z" fill="url(#paint3_linear_1_119)"/>
<path id="Vector_5" d="M59.4636 46.6234L48.3859 58.5263C44.8305 62.3465 41.8842 66.6863 39.6473 71.3978C38.5527 73.7018 39.3526 71.8155 38.3519 74.1688C38.0243 74.9384 37.7511 74.9417 37.5289 75.9778C34.9858 87.805 46.1951 94.6873 52.8367 104.592C56.1123 109.478 52.7857 100.581 55.9641 102.783C63.8189 108.222 54.8119 97.5208 54.8119 97.5208L52.8367 98.6719L41.792 155.407H100.206L89.3781 100.974L94.3161 103.112C94.3161 103.112 98.9315 105.367 104.232 101.015C108.534 97.4829 110.213 90.9576 113.41 87.3248C114.121 86.5174 113.077 84.9929 112.587 84.0358L103.863 74.8266C103.269 73.6656 106.885 72.0556 106.003 73.0177C102.992 76.305 101.723 72.6888 97.7513 66.7488C92.782 59.3173 85.3454 50.2347 81.4262 46.6234H59.4636Z" fill="#F1F1F1"/>
<path id="Vector_6" d="M48.1523 45.885C51.1067 45.885 53.5018 43.4921 53.5018 40.5403C53.5018 37.5886 51.1067 35.1957 48.1523 35.1957C45.1978 35.1957 42.8027 37.5886 42.8027 40.5403C42.8027 43.4921 45.1978 45.885 48.1523 45.885Z" fill="url(#paint4_linear_1_119)"/>
<path id="Vector_7" d="M97.0356 45.885C99.99 45.885 102.385 43.4921 102.385 40.5403C102.385 37.5886 99.99 35.1957 97.0356 35.1957C94.0811 35.1957 91.686 37.5886 91.686 40.5403C91.686 43.4921 94.0811 45.885 97.0356 45.885Z" fill="url(#paint5_linear_1_119)"/>
<path id="Vector_8" d="M73.0088 60.031C85.6912 60.031 95.9723 49.7593 95.9723 37.0885C95.9723 24.4177 85.6912 14.146 73.0088 14.146C60.3265 14.146 50.0454 24.4177 50.0454 37.0885C50.0454 49.7593 60.3265 60.031 73.0088 60.031Z" fill="url(#paint6_linear_1_119)"/>
<path id="Vector_9" d="M90.6832 53.7588C90.6832 64.0123 73.0347 119.31 73.0347 119.31C73.0347 119.31 55.3862 64.0123 55.3862 53.7588C55.3862 43.5054 63.2871 35.194 73.0347 35.194C82.7824 35.194 90.6832 43.5054 90.6832 53.7588Z" fill="url(#paint7_linear_1_119)"/>
<path id="Vector_10" d="M58.876 53.777C58.876 45.3308 65.1621 38.4831 72.9181 38.4831C80.674 38.4831 86.9601 45.3308 86.9601 53.777" fill="url(#paint8_linear_1_119)"/>
<path id="Vector_11" d="M73.0002 12.6643C76.5001 12.6643 79.3373 9.82969 79.3373 6.33299C79.3373 2.83629 76.5001 0.00164795 73.0002 0.00164795C69.5003 0.00164795 66.6631 2.83629 66.6631 6.33299C66.6631 9.82969 69.5003 12.6643 73.0002 12.6643Z" fill="url(#paint9_linear_1_119)"/>
<path id="Vector_12" d="M72.1825 42.4315C75.137 42.4315 77.5321 40.0386 77.5321 37.0869C77.5321 34.1351 75.137 31.7422 72.1825 31.7422C69.2281 31.7422 66.833 34.1351 66.833 37.0869C66.833 40.0386 69.2281 42.4315 72.1825 42.4315Z" fill="url(#paint10_linear_1_119)"/>
<path id="Vector_13" d="M59.9984 154.467C59.9984 154.467 63.0518 147.741 72.9624 149.196C82.873 150.651 82.8829 156.049 82.8829 156.049C82.8829 156.049 84.9404 145.784 95.5472 143.82C106.154 141.855 113.997 148.18 113.997 148.18C113.997 148.18 131.626 142.075 134.151 157.282C136.676 172.489 122.361 173.811 122.361 173.811C122.361 173.811 122.351 184.217 107.693 189.756C93.0354 195.295 82.6359 189.565 82.6359 189.565C82.6359 189.565 69.4646 202.531 52.0005 196.313C34.538 190.095 28.9169 176.987 28.9169 176.987C28.9169 176.987 15.9217 182.64 11.2882 167.674C6.65464 152.707 26.3096 152.524 26.3096 152.524C26.3096 152.524 27.8569 143.766 42.4635 144.006C57.0702 144.244 60.0001 154.468 60.0001 154.468L59.9984 154.467Z" fill="url(#paint11_radial_1_119)"/>
<path id="Vector_14" d="M62.0546 14.1444H84.0057C84.0057 14.1444 91.9115 16.6917 96.5219 27.136H49.5449C49.5449 27.136 52.6723 18.749 62.0546 14.1444Z" fill="url(#paint12_linear_1_119)"/>
<path id="Vector_15" d="M61.396 37.6608C62.3051 37.6608 63.042 36.5932 63.042 35.2763C63.042 33.9593 62.3051 32.8917 61.396 32.8917C60.4869 32.8917 59.75 33.9593 59.75 35.2763C59.75 36.5932 60.4869 37.6608 61.396 37.6608Z" fill="black"/>
<path id="Vector_16" d="M83.1973 28.1967C83.1973 28.1967 79.2848 28.5881 78.1095 32.8884C77.3458 35.6841 78.5721 37.8927 79.5564 39.0191C80.2181 39.7756 81.1201 40.3051 82.1208 40.3956C82.7348 40.4499 83.4278 40.3594 84.0319 39.9006C85.0985 39.0915 85.8013 39.8266 86.1239 40.3298C86.2803 40.5748 86.3741 40.8544 86.3972 41.1438C86.4795 42.1963 86.2194 45.3998 80.8485 45.3998C77.9137 45.3998 76.1524 43.4445 75.2307 41.3922C74.1064 38.8876 73.8727 36.0821 74.3583 33.3818C75.0282 29.6488 77.0018 24.2614 82.8039 23.5065C91.8043 22.334 95.3268 30.1536 95.3268 30.1536C95.3268 30.1536 101.98 41.6948 95.3268 47.263C89.7106 51.963 95.5292 52.139 97.4781 52.0782C97.7563 52.0699 98.0295 52.0222 98.3027 51.9663C98.8805 51.8479 100.429 52.0157 101.978 56.3489C103.756 61.3219 126.527 124.053 130.68 135.496C131.035 136.476 130.512 137.553 129.523 137.882C128.568 138.199 127.534 137.699 127.192 136.754L98.9677 58.5509C98.7554 57.9655 98.5513 57.3751 98.4015 56.7699C98.204 55.9707 97.2822 54.1716 92.9763 54.785C87.979 55.4987 88.8415 50.0324 89.0324 49.0654C89.0522 48.9651 89.0785 48.8714 89.1164 48.776C89.3221 48.2465 90.1369 46.3997 91.8027 45.4015C92.4874 44.9903 92.9812 44.4361 93.3318 43.8902C93.8964 43.012 94.1745 41.9809 94.1992 40.9366C94.2519 38.7478 94.0462 33.2765 90.6274 30.545C86.7149 27.4172 83.1924 28.1999 83.1924 28.1999L83.1973 28.1967Z" fill="url(#paint13_linear_1_119)"/>
<path id="Vector_17" d="M108.478 88.4809C112.569 88.4809 115.885 85.1677 115.885 81.0807C115.885 76.9936 112.569 73.6804 108.478 73.6804C104.388 73.6804 101.071 76.9936 101.071 81.0807C101.071 85.1677 104.388 88.4809 108.478 88.4809Z" fill="url(#paint14_linear_1_119)"/>
<path id="Vector_18" d="M80.1606 35.3585C80.1606 35.3585 82.6297 32.2339 85.7571 32.8917" stroke="black" stroke-miterlimit="10"/>
<path id="Vector_19" d="M80.2266 35.3815C80.2266 35.3815 83.568 33.2124 86.3184 34.8372" stroke="black" stroke-miterlimit="10"/>
</g>
<defs>
<radialGradient id="paint0_radial_1_119" cx="0" cy="0" r="1" gradientUnits="userSpaceOnUse" gradientTransform="translate(112.954 138.314) rotate(32.3064) scale(30.7493 23.0529)">
<stop stop-color="white"/>
<stop offset="0.56" stop-color="#FDFFFF"/>
<stop offset="0.76" stop-color="#F6FFFF"/>
<stop offset="0.91" stop-color="#EAFFFF"/>
<stop offset="1" stop-color="#DEFFFF"/>
</radialGradient>
<radialGradient id="paint1_radial_1_119" cx="0" cy="0" r="1" gradientUnits="userSpaceOnUse" gradientTransform="translate(41.4432 147.413) scale(31.6939 31.6649)">
<stop stop-color="white"/>
<stop offset="0.56" stop-color="#FDFFFF"/>
<stop offset="0.76" stop-color="#F6FFFF"/>
<stop offset="0.91" stop-color="#EAFFFF"/>
<stop offset="1" stop-color="#DEFFFF"/>
</radialGradient>
<linearGradient id="paint2_linear_1_119" x1="46.9787" y1="73.6754" x2="99.0896" y2="73.6754" gradientUnits="userSpaceOnUse">
<stop stop-color="#F1F1F1"/>
<stop offset="0.01" stop-color="#ECECEC"/>
<stop offset="0.1" stop-color="#D7D7D7"/>
<stop offset="0.2" stop-color="#C6C6C6"/>
<stop offset="0.33" stop-color="#BABABA"/>
<stop offset="0.51" stop-color="#B3B3B3"/>
<stop offset="1" stop-color="#B2B2B2"/>
</linearGradient>
<linearGradient id="paint3_linear_1_119" x1="42.9063" y1="57.385" x2="83.6681" y2="117.475" gradientUnits="userSpaceOnUse">
<stop stop-color="#F1F1F1"/>
<stop offset="0.01" stop-color="#ECECEC"/>
<stop offset="0.1" stop-color="#D7D7D7"/>
<stop offset="0.2" stop-color="#C6C6C6"/>
<stop offset="0.33" stop-color="#BABABA"/>
<stop offset="0.51" stop-color="#B3B3B3"/>
<stop offset="1" stop-color="#B2B2B2"/>
</linearGradient>
<linearGradient id="paint4_linear_1_119" x1="43.256" y1="38.8428" x2="53.366" y2="42.3469" gradientUnits="userSpaceOnUse">
<stop stop-color="#FFEAE1"/>
<stop offset="1" stop-color="#FFA86A"/>
</linearGradient>
<linearGradient id="paint5_linear_1_119" x1="92.1391" y1="38.8384" x2="102.249" y2="42.3425" gradientUnits="userSpaceOnUse">
<stop stop-color="#FFEAE1"/>
<stop offset="1" stop-color="#FFA86A"/>
</linearGradient>
<linearGradient id="paint6_linear_1_119" x1="53.2425" y1="27.2648" x2="94.3642" y2="47.7245" gradientUnits="userSpaceOnUse">
<stop stop-color="#FFEAE1"/>
<stop offset="1" stop-color="#FFA86A"/>
</linearGradient>
<linearGradient id="paint7_linear_1_119" x1="56.6866" y1="72.4914" x2="90.7349" y2="81.7805" gradientUnits="userSpaceOnUse">
<stop stop-color="#F1F1F1"/>
<stop offset="1" stop-color="#CBCBCB"/>
</linearGradient>
<linearGradient id="paint8_linear_1_119" x1="58.9879" y1="45.2288" x2="86.859" y2="48.6671" gradientUnits="userSpaceOnUse">
<stop stop-color="#F1F1F1"/>
<stop offset="1" stop-color="#B2B2B2"/>
</linearGradient>
<linearGradient id="paint9_linear_1_119" x1="67.5111" y1="3.16672" x2="78.4823" y2="9.50673" gradientUnits="userSpaceOnUse">
<stop stop-color="#F1F1F1"/>
<stop offset="0.01" stop-color="#ECECEC"/>
<stop offset="0.1" stop-color="#D7D7D7"/>
<stop offset="0.2" stop-color="#C6C6C6"/>
<stop offset="0.33" stop-color="#BABABA"/>
<stop offset="0.51" stop-color="#B3B3B3"/>
<stop offset="1" stop-color="#B2B2B2"/>
</linearGradient>
<linearGradient id="paint10_linear_1_119" x1="67.2858" y1="35.3865" x2="77.3958" y2="38.8906" gradientUnits="userSpaceOnUse">
<stop stop-color="#FFEAE1"/>
<stop offset="1" stop-color="#FFA86A"/>
</linearGradient>
<radialGradient id="paint11_radial_1_119" cx="0" cy="0" r="1" gradientUnits="userSpaceOnUse" gradientTransform="translate(72.5163 170.274) scale(47.8609 26.7777)">
<stop stop-color="white"/>
<stop offset="0.56" stop-color="#FDFFFF"/>
<stop offset="0.76" stop-color="#F6FFFF"/>
<stop offset="0.91" stop-color="#EAFFFF"/>
<stop offset="1" stop-color="#DEFFFF"/>
</radialGradient>
<linearGradient id="paint12_linear_1_119" x1="49.5449" y1="20.6402" x2="96.5219" y2="20.6402" gradientUnits="userSpaceOnUse">
<stop stop-color="white"/>
<stop offset="1" stop-color="#E5E5E5"/>
</linearGradient>
<linearGradient id="paint13_linear_1_119" x1="74.1196" y1="80.6794" x2="130.795" y2="80.6794" gradientUnits="userSpaceOnUse">
<stop stop-color="#C59B6D"/>
<stop offset="1" stop-color="#754C24"/>
</linearGradient>
<linearGradient id="paint14_linear_1_119" x1="101.7" y1="78.7244" x2="115.7" y2="83.576" gradientUnits="userSpaceOnUse">
<stop stop-color="#FFEAE1"/>
<stop offset="1" stop-color="#FFA86A"/>
</linearGradient>
<clipPath id="clip0_1_119">
<rect width="145" height="198" fill="white"/>
</clipPath>
</defs>
</svg>
